<mxfile host="Electron" modified="2024-06-14T11:26:56.886Z" agent="Mozilla/5.0 (Windows NT 10.0; Win64; x64) AppleWebKit/537.36 (KHTML, like Gecko) draw.io/24.5.3 Chrome/124.0.6367.207 Electron/30.0.6 Safari/537.36" etag="k9IjudXfP1v9mjNfyKiq" version="24.5.3" type="device">
  <diagram name="Page-1" id="w5whvGVEZVXZ4GlXbZA-">
    <mxGraphModel dx="995" dy="553" grid="1" gridSize="10" guides="1" tooltips="1" connect="1" arrows="1" fold="1" page="1" pageScale="1" pageWidth="850" pageHeight="1100" math="0" shadow="0">
      <root>
        <mxCell id="0" />
        <mxCell id="1" parent="0" />
        <mxCell id="pRB0fKOEzfRvHiN2lpeF-39" value="" style="whiteSpace=wrap;html=1;fillColor=none;" parent="1" vertex="1">
          <mxGeometry x="193.5" y="695" width="450" height="170" as="geometry" />
        </mxCell>
        <mxCell id="pRB0fKOEzfRvHiN2lpeF-45" style="edgeStyle=orthogonalEdgeStyle;rounded=0;orthogonalLoop=1;jettySize=auto;html=1;entryX=0.5;entryY=0;entryDx=0;entryDy=0;" parent="1" source="pRB0fKOEzfRvHiN2lpeF-4" target="pRB0fKOEzfRvHiN2lpeF-44" edge="1">
          <mxGeometry relative="1" as="geometry" />
        </mxCell>
        <mxCell id="pRB0fKOEzfRvHiN2lpeF-4" value="" style="sketch=0;outlineConnect=0;fontColor=#232F3E;gradientColor=none;fillColor=#232F3D;strokeColor=none;dashed=0;verticalLabelPosition=bottom;verticalAlign=top;align=center;html=1;fontSize=12;fontStyle=0;aspect=fixed;pointerEvents=1;shape=mxgraph.aws4.document;" parent="1" vertex="1">
          <mxGeometry x="390" y="20" width="57" height="78" as="geometry" />
        </mxCell>
        <mxCell id="873pUulNZMCBmKMjjcxj-2" style="edgeStyle=orthogonalEdgeStyle;rounded=0;orthogonalLoop=1;jettySize=auto;html=1;exitX=0;exitY=0.5;exitDx=0;exitDy=0;" edge="1" parent="1" source="pRB0fKOEzfRvHiN2lpeF-5" target="pRB0fKOEzfRvHiN2lpeF-13">
          <mxGeometry relative="1" as="geometry" />
        </mxCell>
        <mxCell id="873pUulNZMCBmKMjjcxj-3" style="edgeStyle=orthogonalEdgeStyle;rounded=0;orthogonalLoop=1;jettySize=auto;html=1;exitX=0.5;exitY=1;exitDx=0;exitDy=0;" edge="1" parent="1" source="pRB0fKOEzfRvHiN2lpeF-5" target="pRB0fKOEzfRvHiN2lpeF-14">
          <mxGeometry relative="1" as="geometry" />
        </mxCell>
        <mxCell id="873pUulNZMCBmKMjjcxj-4" style="edgeStyle=orthogonalEdgeStyle;rounded=0;orthogonalLoop=1;jettySize=auto;html=1;exitX=1;exitY=0.5;exitDx=0;exitDy=0;" edge="1" parent="1" source="pRB0fKOEzfRvHiN2lpeF-5" target="pRB0fKOEzfRvHiN2lpeF-15">
          <mxGeometry relative="1" as="geometry" />
        </mxCell>
        <mxCell id="873pUulNZMCBmKMjjcxj-5" style="edgeStyle=orthogonalEdgeStyle;rounded=0;orthogonalLoop=1;jettySize=auto;html=1;exitX=1;exitY=0;exitDx=0;exitDy=0;entryX=0.526;entryY=0;entryDx=0;entryDy=0;entryPerimeter=0;" edge="1" parent="1" source="pRB0fKOEzfRvHiN2lpeF-5" target="873pUulNZMCBmKMjjcxj-6">
          <mxGeometry relative="1" as="geometry">
            <mxPoint x="760" y="540" as="targetPoint" />
            <Array as="points">
              <mxPoint x="485" y="333" />
              <mxPoint x="760" y="333" />
            </Array>
          </mxGeometry>
        </mxCell>
        <mxCell id="pRB0fKOEzfRvHiN2lpeF-5" value="Document Categorization&amp;nbsp;" style="rhombus;whiteSpace=wrap;html=1;" parent="1" vertex="1">
          <mxGeometry x="352" y="300" width="133" height="130" as="geometry" />
        </mxCell>
        <mxCell id="pRB0fKOEzfRvHiN2lpeF-13" value="" style="sketch=0;outlineConnect=0;fontColor=#232F3E;gradientColor=none;fillColor=#232F3D;strokeColor=none;dashed=0;verticalLabelPosition=bottom;verticalAlign=top;align=center;html=1;fontSize=12;fontStyle=0;aspect=fixed;pointerEvents=1;shape=mxgraph.aws4.document;" parent="1" vertex="1">
          <mxGeometry x="273" y="560" width="57" height="78" as="geometry" />
        </mxCell>
        <mxCell id="pRB0fKOEzfRvHiN2lpeF-14" value="" style="sketch=0;outlineConnect=0;fontColor=#232F3E;gradientColor=none;fillColor=#232F3D;strokeColor=none;dashed=0;verticalLabelPosition=bottom;verticalAlign=top;align=center;html=1;fontSize=12;fontStyle=0;aspect=fixed;pointerEvents=1;shape=mxgraph.aws4.document;" parent="1" vertex="1">
          <mxGeometry x="390" y="550" width="57" height="78" as="geometry" />
        </mxCell>
        <mxCell id="pRB0fKOEzfRvHiN2lpeF-15" value="" style="sketch=0;outlineConnect=0;fontColor=#232F3E;gradientColor=none;fillColor=#232F3D;strokeColor=none;dashed=0;verticalLabelPosition=bottom;verticalAlign=top;align=center;html=1;fontSize=12;fontStyle=0;aspect=fixed;pointerEvents=1;shape=mxgraph.aws4.document;" parent="1" vertex="1">
          <mxGeometry x="500" y="550" width="57" height="78" as="geometry" />
        </mxCell>
        <mxCell id="pRB0fKOEzfRvHiN2lpeF-21" value="Contracts" style="text;html=1;align=center;verticalAlign=middle;resizable=0;points=[];autosize=1;strokeColor=none;fillColor=none;" parent="1" vertex="1">
          <mxGeometry x="198.5" y="520" width="70" height="30" as="geometry" />
        </mxCell>
        <mxCell id="pRB0fKOEzfRvHiN2lpeF-23" value="Courts Documents" style="text;html=1;align=center;verticalAlign=middle;resizable=0;points=[];autosize=1;strokeColor=none;fillColor=none;" parent="1" vertex="1">
          <mxGeometry x="538.5" y="520" width="120" height="30" as="geometry" />
        </mxCell>
        <mxCell id="pRB0fKOEzfRvHiN2lpeF-24" value="Legal Forms" style="text;html=1;align=center;verticalAlign=middle;resizable=0;points=[];autosize=1;strokeColor=none;fillColor=none;" parent="1" vertex="1">
          <mxGeometry x="330" y="510" width="90" height="30" as="geometry" />
        </mxCell>
        <mxCell id="pRB0fKOEzfRvHiN2lpeF-33" value="identify parties involves" style="ellipse;whiteSpace=wrap;html=1;" parent="1" vertex="1">
          <mxGeometry x="220" y="740" width="80" height="80" as="geometry" />
        </mxCell>
        <mxCell id="pRB0fKOEzfRvHiN2lpeF-37" value="Dates" style="ellipse;whiteSpace=wrap;html=1;" parent="1" vertex="1">
          <mxGeometry x="352" y="740" width="80" height="80" as="geometry" />
        </mxCell>
        <mxCell id="pRB0fKOEzfRvHiN2lpeF-38" value="Legal Terms&amp;amp; Phrases (important information)" style="ellipse;whiteSpace=wrap;html=1;" parent="1" vertex="1">
          <mxGeometry x="465.5" y="720" width="100" height="100" as="geometry" />
        </mxCell>
        <mxCell id="pRB0fKOEzfRvHiN2lpeF-40" style="edgeStyle=orthogonalEdgeStyle;rounded=0;orthogonalLoop=1;jettySize=auto;html=1;entryX=0.5;entryY=0;entryDx=0;entryDy=0;" parent="1" source="pRB0fKOEzfRvHiN2lpeF-14" target="pRB0fKOEzfRvHiN2lpeF-39" edge="1">
          <mxGeometry relative="1" as="geometry" />
        </mxCell>
        <mxCell id="pRB0fKOEzfRvHiN2lpeF-41" style="edgeStyle=orthogonalEdgeStyle;rounded=0;orthogonalLoop=1;jettySize=auto;html=1;entryX=0.244;entryY=0;entryDx=0;entryDy=0;entryPerimeter=0;" parent="1" source="pRB0fKOEzfRvHiN2lpeF-13" target="pRB0fKOEzfRvHiN2lpeF-39" edge="1">
          <mxGeometry relative="1" as="geometry" />
        </mxCell>
        <mxCell id="pRB0fKOEzfRvHiN2lpeF-42" style="edgeStyle=orthogonalEdgeStyle;rounded=0;orthogonalLoop=1;jettySize=auto;html=1;entryX=0.75;entryY=0;entryDx=0;entryDy=0;" parent="1" source="pRB0fKOEzfRvHiN2lpeF-15" target="pRB0fKOEzfRvHiN2lpeF-39" edge="1">
          <mxGeometry relative="1" as="geometry" />
        </mxCell>
        <mxCell id="pRB0fKOEzfRvHiN2lpeF-46" style="edgeStyle=orthogonalEdgeStyle;rounded=0;orthogonalLoop=1;jettySize=auto;html=1;exitX=0.5;exitY=1;exitDx=0;exitDy=0;" parent="1" source="pRB0fKOEzfRvHiN2lpeF-44" target="pRB0fKOEzfRvHiN2lpeF-5" edge="1">
          <mxGeometry relative="1" as="geometry" />
        </mxCell>
        <mxCell id="pRB0fKOEzfRvHiN2lpeF-44" value="Language?" style="whiteSpace=wrap;html=1;" parent="1" vertex="1">
          <mxGeometry x="358.5" y="160" width="120" height="60" as="geometry" />
        </mxCell>
        <mxCell id="873pUulNZMCBmKMjjcxj-8" style="edgeStyle=orthogonalEdgeStyle;rounded=0;orthogonalLoop=1;jettySize=auto;html=1;entryX=0.555;entryY=-0.01;entryDx=0;entryDy=0;entryPerimeter=0;" edge="1" parent="1" source="873pUulNZMCBmKMjjcxj-6" target="873pUulNZMCBmKMjjcxj-9">
          <mxGeometry relative="1" as="geometry">
            <mxPoint x="758.5" y="720" as="targetPoint" />
          </mxGeometry>
        </mxCell>
        <mxCell id="873pUulNZMCBmKMjjcxj-6" value="" style="sketch=0;outlineConnect=0;fontColor=#232F3E;gradientColor=none;fillColor=#232F3D;strokeColor=none;dashed=0;verticalLabelPosition=bottom;verticalAlign=top;align=center;html=1;fontSize=12;fontStyle=0;aspect=fixed;pointerEvents=1;shape=mxgraph.aws4.document;" vertex="1" parent="1">
          <mxGeometry x="730" y="550" width="57" height="78" as="geometry" />
        </mxCell>
        <mxCell id="873pUulNZMCBmKMjjcxj-7" value="Others" style="text;html=1;align=center;verticalAlign=middle;resizable=0;points=[];autosize=1;strokeColor=none;fillColor=none;" vertex="1" parent="1">
          <mxGeometry x="770" y="520" width="60" height="30" as="geometry" />
        </mxCell>
        <mxCell id="873pUulNZMCBmKMjjcxj-9" value="Return a message indicating that the document provided is not a legal one" style="whiteSpace=wrap;html=1;fillColor=none;" vertex="1" parent="1">
          <mxGeometry x="658.5" y="690" width="180" height="50" as="geometry" />
        </mxCell>
      </root>
    </mxGraphModel>
  </diagram>
</mxfile>
